<svg width="22" height="21" viewBox="0 0 22 21" fill="none" xmlns="http://www.w3.org/2000/svg">
<g id="at-sign">
<path id="Vector" d="M11 13.5649C13.025 13.5649 14.6667 12.0725 14.6667 10.2315C14.6667 8.39058 13.025 6.89819 11 6.89819C8.97495 6.89819 7.33333 8.39058 7.33333 10.2315C7.33333 12.0725 8.97495 13.5649 11 13.5649Z" stroke="#626060" stroke-width="2" stroke-linecap="round" stroke-linejoin="round"/>
<path id="Vector_2" d="M14.6667 6.89829V11.065C14.6667 11.728 14.9564 12.3639 15.4721 12.8327C15.9878 13.3016 16.6873 13.565 17.4167 13.565C18.146 13.565 18.8455 13.3016 19.3612 12.8327C19.8769 12.3639 20.1667 11.728 20.1667 11.065V10.2316C20.1665 8.35081 19.4665 6.52535 18.1805 5.05206C16.8945 3.57877 15.098 2.54431 13.0832 2.11687C11.0685 1.68943 8.95394 1.89415 7.0834 2.69776C5.21286 3.50136 3.69636 4.85658 2.78048 6.54306C1.8646 8.22953 1.60321 10.1481 2.03882 11.9867C2.47442 13.8254 3.58139 15.476 5.17974 16.6702C6.77809 17.8644 8.77381 18.5319 10.8424 18.5642C12.911 18.5966 14.9308 17.9918 16.5733 16.8483" stroke="#626060" stroke-width="2" stroke-linecap="round" stroke-linejoin="round"/>
</g>
</svg>
