<svg width="25" height="25" viewBox="0 0 25 25" fill="none" xmlns="http://www.w3.org/2000/svg">
<g id="lock">
<path id="Vector" d="M19.2402 11.5792H5.2402C4.13563 11.5792 3.2402 12.4747 3.2402 13.5792V20.5792C3.2402 21.6838 4.13563 22.5792 5.2402 22.5792H19.2402C20.3448 22.5792 21.2402 21.6838 21.2402 20.5792V13.5792C21.2402 12.4747 20.3448 11.5792 19.2402 11.5792Z" stroke="black" stroke-width="2" stroke-linecap="round" stroke-linejoin="round"/>
<path id="Vector_2" d="M7.2402 11.5792V7.57922C7.2402 6.25314 7.76699 4.98137 8.70467 4.04369C9.64235 3.10601 10.9141 2.57922 12.2402 2.57922C13.5663 2.57922 14.8381 3.10601 15.7757 4.04369C16.7134 4.98137 17.2402 6.25314 17.2402 7.57922V11.5792" stroke="black" stroke-width="2" stroke-linecap="round" stroke-linejoin="round"/>
</g>
</svg>
