<svg width="94" height="77" viewBox="0 0 94 77" fill="none" xmlns="http://www.w3.org/2000/svg">
<path id="Vector" d="M80.0333 17.6667C79.2189 16.3316 78.0496 15.2215 76.6414 14.4467C75.2333 13.6719 73.6355 13.2593 72.0067 13.25H60.6667V4.41667C60.6667 3.24529 60.175 2.1219 59.2998 1.29361C58.4247 0.465327 57.2377 0 56 0H9.33333C6.85798 0 4.48401 0.930652 2.73367 2.58722C0.98333 4.24379 0 6.49059 0 8.83333V53C0.0016788 54.549 0.433733 56.0704 1.25282 57.4115C2.07191 58.7526 3.24922 59.8663 4.66667 60.6408C4.49958 64.7406 6.06017 68.7353 9.00511 71.7462C11.9501 74.757 16.0381 76.5373 20.37 76.6954C24.7019 76.8535 28.9227 75.3766 32.1039 72.5894C35.2852 69.8022 37.1662 65.9331 37.3333 61.8333H51.8C52.316 65.5288 54.2335 68.9208 57.1953 71.3778C60.1571 73.8349 63.9614 75.1895 67.9 75.1895C71.8385 75.1895 75.6429 73.8349 78.6047 71.3778C81.5665 68.9208 83.484 65.5288 84 61.8333C86.4753 61.8333 88.8493 60.9027 90.5997 59.2461C92.35 57.5895 93.3333 55.3427 93.3333 53V39.75C93.326 38.9442 93.1011 38.1537 92.68 37.4533L80.0333 17.6667ZM60.6667 22.0833H72.0067L80.4067 35.3333H60.6667V22.0833ZM21 66.25C19.6155 66.25 18.2622 65.8614 17.111 65.1335C15.9599 64.4055 15.0627 63.3708 14.5328 62.1603C14.003 60.9497 13.8644 59.6176 14.1345 58.3325C14.4046 57.0474 15.0713 55.8669 16.0503 54.9404C17.0292 54.0139 18.2765 53.3829 19.6344 53.1273C20.9922 52.8717 22.3997 53.0029 23.6788 53.5043C24.9579 54.0057 26.0511 54.8549 26.8203 55.9443C27.5895 57.0338 28 58.3147 28 59.625C28 61.3821 27.2625 63.0672 25.9497 64.3096C24.637 65.552 22.8565 66.25 21 66.25ZM67.6667 66.25C66.2822 66.25 64.9288 65.8614 63.7777 65.1335C62.6265 64.4055 61.7293 63.3708 61.1995 62.1603C60.6697 60.9497 60.5311 59.6176 60.8012 58.3325C61.0713 57.0474 61.7379 55.8669 62.7169 54.9404C63.6959 54.0139 64.9432 53.3829 66.301 53.1273C67.6589 52.8717 69.0664 53.0029 70.3454 53.5043C71.6245 54.0057 72.7178 54.8549 73.4869 55.9443C74.2561 57.0338 74.6667 58.3147 74.6667 59.625C74.6667 61.3821 73.9292 63.0672 72.6164 64.3096C71.3036 65.552 69.5232 66.25 67.6667 66.25Z" fill="black"/>
</svg>
