<svg width="90" height="80" viewBox="0 0 90 80" fill="none" xmlns="http://www.w3.org/2000/svg">
<g id="bx-cart-alt">
<path id="Vector" d="M78.75 13.3334H7.5V20.0001H16.125L28.425 50.0001C29.1987 51.9452 30.6303 53.6301 32.5235 54.8236C34.4168 56.0171 36.679 56.6609 39 56.6667H71.25V50.0001H39C38.2293 49.9998 37.4775 49.7884 36.8467 49.3948C36.216 49.0011 35.737 48.4443 35.475 47.8001L33.75 43.3334H68.55C70.1776 43.3313 71.7603 42.8586 73.0591 41.9867C74.3579 41.1148 75.3024 39.891 75.75 38.5001L82.5 17.5667C82.6524 17.129 82.7017 16.668 82.6447 16.2126C82.5878 15.7572 82.4258 15.3172 82.1689 14.9199C81.912 14.5226 81.5657 14.1767 81.1517 13.9038C80.7376 13.6308 80.2647 13.4366 79.7625 13.3334C79.4272 13.2849 79.0853 13.2849 78.75 13.3334ZM68.4375 36.6667H30.9375L24.1125 20.0001H73.7625L68.4375 36.6667Z" fill="black"/>
<path id="Vector_2" d="M39.375 70C42.4816 70 45 67.7614 45 65C45 62.2386 42.4816 60 39.375 60C36.2684 60 33.75 62.2386 33.75 65C33.75 67.7614 36.2684 70 39.375 70Z" fill="black"/>
<path id="Vector_3" d="M61.875 70C64.9816 70 67.5 67.7614 67.5 65C67.5 62.2386 64.9816 60 61.875 60C58.7684 60 56.25 62.2386 56.25 65C56.25 67.7614 58.7684 70 61.875 70Z" fill="black"/>
</g>
</svg>
