<svg width="90" height="80" viewBox="0 0 90 80" fill="none" xmlns="http://www.w3.org/2000/svg">
<g id="bx-face">
<path id="Vector" d="M45 6.66663C24.3225 6.66663 7.5 21.62 7.5 40C7.5 58.38 24.3225 73.3333 45 73.3333C65.6775 73.3333 82.5 58.38 82.5 40C82.5 21.62 65.6775 6.66663 45 6.66663ZM45 13.3333C57.0488 13.3333 67.4325 19.6933 72.2025 28.8266C71.044 28.3393 69.9229 27.7847 68.8462 27.1666C67.3125 26.3066 65.5725 25.33 63.3713 24.5933C60.8625 23.7433 58.1213 23.3333 54.9938 23.3333C51.8662 23.3333 49.125 23.7433 46.6162 24.59C44.415 25.3333 42.675 26.31 41.0962 27.1933C39.6787 27.9833 38.46 28.67 36.96 29.1733C35.2875 29.7366 33.4725 30 31.2375 30C29.0063 30 27.1913 29.7366 25.5225 29.1733C24.0225 28.67 22.7925 27.98 21.375 27.18C20.7712 26.8433 20.1 26.4866 19.425 26.1366C24.7013 18.4733 34.1737 13.3333 45 13.3333ZM45 66.6666C28.4588 66.6666 15 54.7033 15 40C15 37.3 15.4613 34.7 16.305 32.2433C16.6575 32.4366 16.9987 32.61 17.3663 32.82C18.9075 33.6866 20.6513 34.6666 22.8638 35.4066C25.3725 36.2566 28.11 36.6666 31.2375 36.6666C34.3612 36.6666 37.1025 36.2566 39.6187 35.41C41.82 34.6666 43.56 33.69 45.1387 32.8066C46.5562 32.0166 47.775 31.33 49.275 30.8233C50.9438 30.2633 52.7588 30 54.9938 30C57.2287 30 59.0438 30.2633 60.7125 30.8266C62.2088 31.3266 63.4313 32.0133 64.89 32.8333C66.4238 33.6933 68.1637 34.67 70.365 35.41C71.7262 35.87 73.17 36.1733 74.6888 36.38C74.8725 37.57 75 38.77 75 40C75 54.7033 61.5412 66.6666 45 66.6666Z" fill="black"/>
<path id="Vector_2" d="M31.875 50C34.9816 50 37.5 47.7614 37.5 45C37.5 42.2386 34.9816 40 31.875 40C28.7684 40 26.25 42.2386 26.25 45C26.25 47.7614 28.7684 50 31.875 50Z" fill="black"/>
<path id="Vector_3" d="M58.125 50C61.2316 50 63.75 47.7614 63.75 45C63.75 42.2386 61.2316 40 58.125 40C55.0184 40 52.5 42.2386 52.5 45C52.5 47.7614 55.0184 50 58.125 50Z" fill="black"/>
</g>
</svg>
