<svg width="80" height="65" viewBox="0 0 80 65" fill="none" xmlns="http://www.w3.org/2000/svg">
<g id="Component 2">
<path id="Vector" d="M61.6346 30.2832C64.1791 26.2944 65.2779 21.6644 64.7721 17.0631C64.0243 10.2071 59.8633 4.14664 53.0619 0L48.4455 6.40251C53.1204 9.25405 55.9654 13.3161 56.4584 17.8317C56.6857 19.9304 56.4017 22.0493 55.627 24.0343C54.8523 26.0193 53.6064 27.8206 51.9799 29.307L47 33.8879L53.7596 35.7134C71.4398 40.4788 71.6445 56.8348 71.6445 57H80C80 50.1248 76.0061 36.6895 61.6346 30.2832Z" fill="black"/>
<path id="Vector_2" d="M31.5 34C40.7652 34 48.3 27.0483 48.3 18.5C48.3 9.95175 40.7652 3 31.5 3C22.2348 3 14.7 9.95175 14.7 18.5C14.7 27.0483 22.2348 34 31.5 34ZM31.5 10.75C36.1326 10.75 39.9 14.2259 39.9 18.5C39.9 22.7741 36.1326 26.25 31.5 26.25C26.8674 26.25 23.1 22.7741 23.1 18.5C23.1 14.2259 26.8674 10.75 31.5 10.75ZM37.8 37.875H25.2C11.3022 37.875 0 48.3026 0 61.125V65H8.4V61.125C8.4 52.5767 15.9348 45.625 25.2 45.625H37.8C47.0652 45.625 54.6 52.5767 54.6 61.125V65H63V61.125C63 48.3026 51.6978 37.875 37.8 37.875Z" fill="black"/>
</g>
</svg>
