<svg width="31" height="30" viewBox="0 0 31 30" fill="none" xmlns="http://www.w3.org/2000/svg">
<path id="Menu" d="M30.69 0H0.31C0.1395 0 0 0.153409 0 0.340909V3.06818C0 3.25568 0.1395 3.40909 0.31 3.40909H30.69C30.8605 3.40909 31 3.25568 31 3.06818V0.340909C31 0.153409 30.8605 0 30.69 0ZM30.69 26.5909H0.31C0.1395 26.5909 0 26.7443 0 26.9318V29.6591C0 29.8466 0.1395 30 0.31 30H30.69C30.8605 30 31 29.8466 31 29.6591V26.9318C31 26.7443 30.8605 26.5909 30.69 26.5909ZM30.69 13.2955H0.31C0.1395 13.2955 0 13.4489 0 13.6364V16.3636C0 16.5511 0.1395 16.7045 0.31 16.7045H30.69C30.8605 16.7045 31 16.5511 31 16.3636V13.6364C31 13.4489 30.8605 13.2955 30.69 13.2955Z" fill="black"/>
</svg>
