<svg width="91" height="93" viewBox="0 0 91 93" fill="none" xmlns="http://www.w3.org/2000/svg">
<g id="Perfil">
<rect id="Rectangle 8" x="2.5" y="2.5" width="86" height="88" fill="white" stroke="#0021FF" stroke-width="5"/>
<path id="Vector" d="M45.5 19C42.1487 19 38.8727 19.8489 36.0862 21.4393C33.2997 23.0296 31.1279 25.2901 29.8454 27.9348C28.5629 30.5796 28.2273 33.4897 28.8811 36.2974C29.5349 39.105 31.1487 41.6839 33.5185 43.7081C35.8882 45.7323 38.9074 47.1108 42.1943 47.6693C45.4812 48.2277 48.8882 47.9411 51.9844 46.8456C55.0805 45.7501 57.7269 43.895 59.5888 41.5148C61.4507 39.1346 62.4444 36.3363 62.4444 33.4737C62.4444 29.635 60.6592 25.9536 57.4815 23.2392C54.3038 20.5249 49.9939 19 45.5 19ZM45.5 42.1579C43.4892 42.1579 41.5236 41.6486 39.8517 40.6943C38.1798 39.7401 36.8767 38.3838 36.1072 36.797C35.3377 35.2102 35.1364 33.4641 35.5287 31.7795C35.921 30.0949 36.8892 28.5475 38.3111 27.333C39.7329 26.1185 41.5444 25.2914 43.5166 24.9563C45.4887 24.6213 47.5329 24.7932 49.3906 25.4505C51.2483 26.1078 52.8361 27.2209 53.9533 28.649C55.0704 30.0771 55.6667 31.7561 55.6667 33.4737C55.6667 35.7769 54.5955 37.9857 52.6889 39.6143C50.7823 41.243 48.1964 42.1579 45.5 42.1579ZM76 74V71.1053C76 65.7311 73.5007 60.5771 69.0519 56.777C64.6031 52.977 58.5693 50.8421 52.2778 50.8421H38.7222C32.4307 50.8421 26.3969 52.977 21.9481 56.777C17.4993 60.5771 15 65.7311 15 71.1053V74H21.7778V71.1053C21.7778 67.2666 23.563 63.5852 26.7407 60.8708C29.9184 58.1565 34.2283 56.6316 38.7222 56.6316H52.2778C56.7717 56.6316 61.0816 58.1565 64.2593 60.8708C67.437 63.5852 69.2222 67.2666 69.2222 71.1053V74H76Z" fill="#0021FF"/>
</g>
</svg>
