<svg width="90" height="91" viewBox="0 0 90 91" fill="none" xmlns="http://www.w3.org/2000/svg">
<path id="Vector" d="M89.9672 27.1757C90.0109 26.8572 90.0109 26.5341 89.9672 26.2156V25.8498C89.8899 25.5946 89.7842 25.3492 89.6523 25.1183C89.5939 24.9866 89.5183 24.8636 89.4274 24.7525L88.9776 24.1582L88.6177 23.8839L88.0779 23.4724L47.5927 0.612528C46.9088 0.211254 46.1331 0 45.3435 0C44.5538 0 43.7781 0.211254 43.0943 0.612528L2.60905 23.4724L2.2042 23.7924L1.70938 24.1582C1.57869 24.3077 1.47239 24.4775 1.39449 24.6611C1.25057 24.7923 1.12897 24.9468 1.03462 25.1183C0.917823 25.3189 0.8271 25.5341 0.764722 25.7584C0.739555 25.9097 0.739555 26.0643 0.764722 26.2156C0.455439 26.4866 0.19644 26.8118 0 27.1757V63.7515C0.00583804 64.5662 0.225764 65.3645 0.637019 66.0638C1.04827 66.7631 1.63592 67.3381 2.33915 67.7291L42.8244 90.589C43.0103 90.6992 43.2061 90.791 43.4092 90.8633H43.859C44.598 91.0456 45.3692 91.0456 46.1082 90.8633H46.558L47.1878 90.589L87.673 67.7291C88.3679 67.3321 88.9465 66.7546 89.3496 66.0557C89.7527 65.3568 89.9658 64.5616 89.9672 63.7515V27.1757ZM44.9836 44.8692L13.765 27.1757L26.1805 20.2263L56.9043 38.057L44.9836 44.8692ZM44.9836 9.5736L76.2022 27.1757L66.1259 32.8907L35.4021 15.0142L44.9836 9.5736ZM8.99672 34.948L40.4852 52.8702V78.839L8.99672 61.054V34.948ZM49.482 78.839V52.8702L62.9771 45.1893V59.1795L71.9738 54.6075V40.0687L80.9705 34.9938V61.054L49.482 78.839Z" fill="black"/>
</svg>
