<svg width="93" height="88" viewBox="0 0 93 88" fill="none" xmlns="http://www.w3.org/2000/svg">
<path id="Vector" d="M83.7 39.6V13.2C83.7 8.3468 79.529 4.4 74.4 4.4H60.45C60.45 3.23305 59.9601 2.11389 59.088 1.28873C58.216 0.46357 57.0333 0 55.8 0H27.9C26.6667 0 25.484 0.46357 24.612 1.28873C23.7399 2.11389 23.25 3.23305 23.25 4.4H9.3C4.17105 4.4 0 8.3468 0 13.2V70.4C0 75.2532 4.17105 79.2 9.3 79.2H41.85C41.85 84.0532 46.021 88 51.15 88H83.7C88.829 88 93 84.0532 93 79.2V48.4C93 43.5468 88.829 39.6 83.7 39.6ZM41.85 48.4V70.4H9.3V13.2H23.25V22H60.45V13.2H74.4V39.6H51.15C46.021 39.6 41.85 43.5468 41.85 48.4ZM51.15 79.2V48.4H83.7L83.7047 79.2H51.15Z" fill="black"/>
</svg>
